<?xml version="1.0" encoding="UTF-8"?>
<!DOCTYPE svg PUBLIC "-//W3C//DTD SVG 1.1//EN" "http://www.w3.org/Graphics/SVG/1.1/DTD/svg11.dtd">
<svg xmlns="http://www.w3.org/2000/svg" version="1.1" width="450px" height="450px" style="shape-rendering:geometricPrecision; text-rendering:geometricPrecision; image-rendering:optimizeQuality; fill-rule:evenodd; clip-rule:evenodd" xmlns:xlink="http://www.w3.org/1999/xlink">
<g><path style="opacity:0.008" fill="#fe0000" d="M 167.5,82.5 C 168.833,83.1667 168.833,83.1667 167.5,82.5 Z"/></g>
<g><path style="opacity:0.998" fill="#ed1410" d="M 258.5,133.5 C 294.572,146.006 315.905,171.006 322.5,208.5C 321.386,223.952 318.22,238.952 313,253.5C 311.834,256.503 310.167,259.17 308,261.5C 305.958,258.06 303.458,255.06 300.5,252.5C 299.797,250.284 298.464,248.451 296.5,247C 291.212,243.768 286.378,239.935 282,235.5C 279.582,227.41 274.582,221.41 267,217.5C 267.379,215.925 267.212,214.425 266.5,213C 256.771,211.094 247.104,208.76 237.5,206C 229.669,204.968 222.002,205.635 214.5,208C 212.939,208.941 211.605,210.108 210.5,211.5C 211.325,212.386 212.325,212.719 213.5,212.5C 218.179,212.334 222.845,212.501 227.5,213C 228.756,213.417 229.423,214.25 229.5,215.5C 228.426,216.885 227.093,218.051 225.5,219C 221.833,219.333 218.167,219.667 214.5,220C 210.983,221.484 209.149,223.984 209,227.5C 209.414,227.957 209.914,228.291 210.5,228.5C 212.316,227.185 213.983,225.685 215.5,224C 217.167,223.333 218.833,223.333 220.5,224C 204.994,237.91 191.494,253.41 180,270.5C 179.889,276.062 181.056,281.396 183.5,286.5C 180.384,288.55 177.051,290.05 173.5,291C 177.357,291.758 181.023,291.258 184.5,289.5C 187.908,290.578 189.908,292.911 190.5,296.5C 190.062,296.435 189.728,296.601 189.5,297C 193.386,302.046 197.053,307.213 200.5,312.5C 186.358,308.778 175.024,301.112 166.5,289.5C 166.666,284.156 166.499,278.823 166,273.5C 164.051,277.629 162.884,281.963 162.5,286.5C 159.837,282.507 157.67,278.173 156,273.5C 154.997,262.241 155.497,251.074 157.5,240C 157.43,239.235 157.097,238.735 156.5,238.5C 156.631,237.761 156.464,237.094 156,236.5C 152.203,243.059 149.703,250.059 148.5,257.5C 147.503,257.53 146.836,257.03 146.5,256C 143.394,247.356 142.728,238.523 144.5,229.5C 146.799,221.783 148.965,214.116 151,206.5C 146.742,213.016 143.575,220.016 141.5,227.5C 140.348,222.015 140.182,216.349 141,210.5C 142.258,204.878 143.258,199.211 144,193.5C 147.576,183.358 151.409,173.358 155.5,163.5C 163.574,154.761 172.574,147.094 182.5,140.5C 187.846,137.325 193.512,134.992 199.5,133.5C 205.615,132.253 211.615,130.919 217.5,129.5C 231.36,127.425 245.027,128.758 258.5,133.5 Z"/></g>
<g><path style="opacity:1" fill="#a60c0a" d="M 155.5,163.5 C 151.409,173.358 147.576,183.358 144,193.5C 143.258,199.211 142.258,204.878 141,210.5C 140.182,216.349 140.348,222.015 141.5,227.5C 138.261,234.789 136.428,242.456 136,250.5C 128.502,218.175 135.002,189.175 155.5,163.5 Z"/></g>
<g><path style="opacity:0.98" fill="#160302" d="M 229.5,123.5 C 273.329,126.157 304.163,147.49 322,187.5C 324.047,193.327 325.213,199.327 325.5,205.5C 324.378,207.288 324.211,209.288 325,211.5C 325.232,210.263 325.732,209.263 326.5,208.5C 330.221,229.848 327.554,250.348 318.5,270C 322.392,271.64 326.392,272.973 330.5,274C 331.833,275 331.833,276 330.5,277C 329.207,277.49 327.873,277.657 326.5,277.5C 322.974,275.928 319.307,274.428 315.5,273C 310.47,269.153 305.137,265.82 299.5,263C 293.064,263.418 286.73,264.585 280.5,266.5C 277.102,266.82 273.768,266.487 270.5,265.5C 270.624,264.893 270.957,264.56 271.5,264.5C 272.274,265.147 273.274,265.48 274.5,265.5C 282.445,263.403 290.445,261.737 298.5,260.5C 300.331,261.052 301.997,261.052 303.5,260.5C 302.408,257.976 301.074,255.643 299.5,253.5C 300.167,253.5 300.5,253.167 300.5,252.5C 303.458,255.06 305.958,258.06 308,261.5C 310.167,259.17 311.834,256.503 313,253.5C 318.22,238.952 321.386,223.952 322.5,208.5C 315.905,171.006 294.572,146.006 258.5,133.5C 258.918,132.778 259.584,132.278 260.5,132C 250.905,128.067 240.905,126.067 230.5,126C 229.748,125.329 229.414,124.496 229.5,123.5 Z M 324.5,218.5 C 326.204,234.517 324.037,250.184 318,265.5C 317.632,266.91 316.799,267.91 315.5,268.5C 313.833,267.333 312.167,266.167 310.5,265C 318.882,250.681 323.549,235.181 324.5,218.5 Z"/></g>
<g><path style="opacity:1" fill="#a70d0a" d="M 229.5,215.5 C 229.423,214.25 228.756,213.417 227.5,213C 222.845,212.501 218.179,212.334 213.5,212.5C 214.749,210.864 216.416,209.697 218.5,209C 225.19,207.107 231.857,207.107 238.5,209C 235.621,211.385 232.621,213.552 229.5,215.5 Z"/></g>
<g><path style="opacity:0.341" fill="#7e0503" d="M 325.5,205.5 C 326.11,206.391 326.443,207.391 326.5,208.5C 325.732,209.263 325.232,210.263 325,211.5C 324.211,209.288 324.378,207.288 325.5,205.5 Z"/></g>
<g><path style="opacity:0.996" fill="#faa97f" d="M 235.5,214.5 C 243.416,215.631 250.416,218.631 256.5,223.5C 254.078,224.692 253.078,226.692 253.5,229.5C 253.622,232.698 254.455,235.698 256,238.5C 258.139,239.769 260.305,239.769 262.5,238.5C 263.393,235.916 263.726,233.249 263.5,230.5C 264.794,231.29 265.961,232.29 267,233.5C 269.374,237.75 271.874,241.916 274.5,246C 281.342,249.922 288.342,253.588 295.5,257C 296.71,258.039 297.71,259.206 298.5,260.5C 290.445,261.737 282.445,263.403 274.5,265.5C 273.274,265.48 272.274,265.147 271.5,264.5C 275.385,249.21 269.385,241.71 253.5,242C 252.1,240.562 250.433,239.729 248.5,239.5C 248.392,241.514 249.058,243.18 250.5,244.5C 249.265,246.017 249.265,247.684 250.5,249.5C 253.488,251.552 256.821,252.719 260.5,253C 264.282,258.04 264.448,263.206 261,268.5C 258.004,270.733 255.171,273.066 252.5,275.5C 250.473,275.662 248.473,275.495 246.5,275C 243.089,271.516 240.422,267.516 238.5,263C 237.072,262.421 235.738,262.588 234.5,263.5C 224.924,264.547 215.424,263.88 206,261.5C 203.747,261.631 201.581,262.131 199.5,263C 194.675,269.654 189.342,275.821 183.5,281.5C 182.508,278.221 182.341,274.888 183,271.5C 197.166,249.498 214.666,230.498 235.5,214.5 Z"/></g>
<g><path style="opacity:1" fill="#f98345" d="M 299.5,253.5 C 301.074,255.643 302.408,257.976 303.5,260.5C 301.997,261.052 300.331,261.052 298.5,260.5C 297.71,259.206 296.71,258.039 295.5,257C 288.342,253.588 281.342,249.922 274.5,246C 271.874,241.916 269.374,237.75 267,233.5C 265.961,232.29 264.794,231.29 263.5,230.5C 262.833,226.5 260.5,224.167 256.5,223.5C 250.416,218.631 243.416,215.631 235.5,214.5C 240.086,208.679 245.419,208.179 251.5,213C 248.895,214.931 248.895,216.764 251.5,218.5C 255.249,214.732 259.249,214.565 263.5,218C 271.441,222.608 277.275,229.108 281,237.5C 287.039,243.043 293.205,248.376 299.5,253.5 Z"/></g>
<g><path style="opacity:1" fill="#a80d0a" d="M 144.5,229.5 C 142.728,238.523 143.394,247.356 146.5,256C 146.836,257.03 147.503,257.53 148.5,257.5C 148.5,257.833 148.5,258.167 148.5,258.5C 147.673,263.985 147.173,269.652 147,275.5C 146.583,274.244 145.75,273.577 144.5,273.5C 142.096,265.142 140.429,256.475 139.5,247.5C 140.256,241.132 141.922,235.132 144.5,229.5 Z"/></g>
<g><path style="opacity:0.971" fill="#1b0402" d="M 229.5,123.5 C 229.414,124.496 229.748,125.329 230.5,126C 240.905,126.067 250.905,128.067 260.5,132C 259.584,132.278 258.918,132.778 258.5,133.5C 245.027,128.758 231.36,127.425 217.5,129.5C 211.01,129.195 205.01,130.529 199.5,133.5C 193.512,134.992 187.846,137.325 182.5,140.5C 172.574,147.094 163.574,154.761 155.5,163.5C 135.002,189.175 128.502,218.175 136,250.5C 136.428,242.456 138.261,234.789 141.5,227.5C 143.575,220.016 146.742,213.016 151,206.5C 148.965,214.116 146.799,221.783 144.5,229.5C 141.922,235.132 140.256,241.132 139.5,247.5C 140.429,256.475 142.096,265.142 144.5,273.5C 146.467,276.216 147.967,279.216 149,282.5C 148.678,274.537 148.512,266.537 148.5,258.5C 148.5,258.167 148.5,257.833 148.5,257.5C 149.703,250.059 152.203,243.059 156,236.5C 156.464,237.094 156.631,237.761 156.5,238.5C 150.87,254.557 150.037,270.89 154,287.5C 156.667,290.167 159.333,292.833 162,295.5C 162.498,292.518 162.665,289.518 162.5,286.5C 162.884,281.963 164.051,277.629 166,273.5C 166.499,278.823 166.666,284.156 166.5,289.5C 166.335,292.85 166.502,296.183 167,299.5C 176.212,310.689 188.045,315.689 202.5,314.5C 202.145,313.478 201.478,312.811 200.5,312.5C 197.053,307.213 193.386,302.046 189.5,297C 189.728,296.601 190.062,296.435 190.5,296.5C 195.504,300.786 199.837,305.786 203.5,311.5C 205.423,312.308 207.423,312.808 209.5,313C 225.779,324.269 243.446,327.102 262.5,321.5C 276.519,316.483 287.519,307.649 295.5,295C 292.435,294.632 289.768,293.465 287.5,291.5C 285.664,288.817 284.664,285.817 284.5,282.5C 285.675,282.281 286.675,282.614 287.5,283.5C 288.548,286.952 290.548,289.619 293.5,291.5C 295.754,294.004 297.088,293.337 297.5,289.5C 298.78,288.069 300.447,287.402 302.5,287.5C 302.833,288.833 303.167,288.833 303.5,287.5C 304.239,287.631 304.906,287.464 305.5,287C 302.143,285.488 300.143,282.988 299.5,279.5C 302.14,279.954 304.473,281.121 306.5,283C 308.134,283.494 309.801,283.66 311.5,283.5C 312.29,284.794 313.29,285.961 314.5,287C 312.444,287.311 310.444,287.811 308.5,288.5C 300.351,297.816 292.018,306.983 283.5,316C 264.328,329.715 243.661,332.548 221.5,324.5C 220.913,325.233 220.913,326.233 221.5,327.5C 220.833,327.5 220.167,327.5 219.5,327.5C 218.448,325.744 216.781,325.077 214.5,325.5C 213.833,325.167 213.167,324.833 212.5,324.5C 209.723,322.247 206.723,321.581 203.5,322.5C 202.5,322.5 201.5,322.5 200.5,322.5C 200.611,321.883 200.944,321.383 201.5,321C 197.49,318.827 193.157,317.994 188.5,318.5C 184.089,318.797 180.089,317.631 176.5,315C 153.088,299.561 138.255,278.061 132,250.5C 125.392,215.931 133.059,184.931 155,157.5C 159.882,151.951 165.382,147.118 171.5,143C 170.199,138.309 168.365,133.809 166,129.5C 162.482,125.749 158.982,122.083 155.5,118.5C 161.386,116.89 166.719,114.224 171.5,110.5C 169.586,106.422 167.086,102.755 164,99.5C 163.383,98.5509 163.549,97.7175 164.5,97C 180.026,95.3308 193.693,89.4975 205.5,79.5C 206.086,79.7093 206.586,80.0426 207,80.5C 207.149,86.3418 208.149,92.0085 210,97.5C 214.448,95.4265 218.948,93.4265 223.5,91.5C 225.801,92.2688 225.967,93.2688 224,94.5C 223.464,104.619 225.298,114.286 229.5,123.5 Z"/></g>
<g><path style="opacity:0.996" fill="#9a0c0b" d="M 217.5,129.5 C 211.615,130.919 205.615,132.253 199.5,133.5C 205.01,130.529 211.01,129.195 217.5,129.5 Z"/></g>
<g><path style="opacity:0.997" fill="#e7130f" d="M 166.5,116.5 C 167.822,116.33 168.989,116.663 170,117.5C 173.957,124.927 175.124,132.594 173.5,140.5C 171.457,132.08 167.124,125.08 160.5,119.5C 162.518,118.491 164.518,117.491 166.5,116.5 Z"/></g>
<g><path style="opacity:1" fill="#ab0d0a" d="M 173.5,140.5 C 175.124,132.594 173.957,124.927 170,117.5C 168.989,116.663 167.822,116.33 166.5,116.5C 168.519,115.067 170.686,113.733 173,112.5C 176.058,119.007 178.725,125.674 181,132.5C 181.808,134.579 181.641,136.579 180.5,138.5C 178.571,139.38 176.737,140.38 175,141.5C 174.235,141.43 173.735,141.097 173.5,140.5 Z"/></g>
<g><path style="opacity:1" fill="#a90d0a" d="M 170.5,98.5 C 174.323,104.138 178.157,109.805 182,115.5C 191.397,124.476 202.23,127.142 214.5,123.5C 215.404,124.209 215.737,125.209 215.5,126.5C 210.763,126.881 206.096,127.714 201.5,129C 195.909,131.589 190.243,134.089 184.5,136.5C 180.625,123.594 175.292,111.427 168.5,100C 168.836,98.9701 169.503,98.4701 170.5,98.5 Z"/></g>
<g><path style="opacity:1" fill="#ac0d0a" d="M 212.5,98.5 C 213.657,100.138 214.824,101.804 216,103.5C 217.607,108.988 219.607,114.322 222,119.5C 222.759,121.063 223.926,122.063 225.5,122.5C 225.804,123.15 226.137,123.817 226.5,124.5C 223.572,125.484 220.572,125.817 217.5,125.5C 214.842,117.191 212.175,108.857 209.5,100.5C 210.357,99.5748 211.357,98.9081 212.5,98.5 Z"/></g>
<g><path style="opacity:0.996" fill="#e4120f" d="M 225.5,122.5 C 223.926,122.063 222.759,121.063 222,119.5C 219.607,114.322 217.607,108.988 216,103.5C 214.824,101.804 213.657,100.138 212.5,98.5C 215.25,97.8089 217.917,96.8089 220.5,95.5C 221.27,104.682 222.937,113.682 225.5,122.5 Z"/></g>
<g><path style="opacity:0.997" fill="#ec130f" d="M 214.5,123.5 C 202.23,127.142 191.397,124.476 182,115.5C 178.157,109.805 174.323,104.138 170.5,98.5C 183.072,96.7561 194.405,92.0894 204.5,84.5C 206.742,97.8015 210.075,110.802 214.5,123.5 Z"/></g>
<g><path style="opacity:0.992" fill="#faf9f9" d="M 326.5,277.5 C 321.487,279.343 316.487,281.343 311.5,283.5C 309.801,283.66 308.134,283.494 306.5,283C 304.473,281.121 302.14,279.954 299.5,279.5C 300.143,282.988 302.143,285.488 305.5,287C 304.906,287.464 304.239,287.631 303.5,287.5C 303.167,287.5 302.833,287.5 302.5,287.5C 300.447,287.402 298.78,288.069 297.5,289.5C 295.847,289.66 294.514,290.326 293.5,291.5C 290.548,289.619 288.548,286.952 287.5,283.5C 286.675,282.614 285.675,282.281 284.5,282.5C 284.664,285.817 285.664,288.817 287.5,291.5C 285.265,291.205 283.265,291.539 281.5,292.5C 277.505,293.001 273.838,294.334 270.5,296.5C 270.067,293.834 269.567,291.168 269,288.5C 268.586,288.043 268.086,287.709 267.5,287.5C 266.334,290.837 266.334,294.17 267.5,297.5C 261.565,296.14 256.231,297.473 251.5,301.5C 251.826,297.116 251.492,292.783 250.5,288.5C 249.914,288.709 249.414,289.043 249,289.5C 248.232,293.92 248.398,298.253 249.5,302.5C 246.366,301.099 243.366,299.432 240.5,297.5C 238.192,297.086 235.858,296.753 233.5,296.5C 230.664,296.706 227.998,297.373 225.5,298.5C 225.665,295.482 225.498,292.482 225,289.5C 224.586,289.043 224.086,288.709 223.5,288.5C 222.513,291.768 222.18,295.102 222.5,298.5C 219.833,296.833 217.167,295.167 214.5,293.5C 211.57,292.701 208.57,292.368 205.5,292.5C 206.014,290.634 206.68,288.8 207.5,287C 207.387,285.72 206.72,284.887 205.5,284.5C 203.234,288.034 201.234,291.7 199.5,295.5C 197.154,289.822 192.82,287.489 186.5,288.5C 193.086,282.415 198.753,275.582 203.5,268C 214.062,268.538 224.562,268.371 235,267.5C 237.814,272.645 241.647,276.812 246.5,280C 256.981,281.259 264.981,277.425 270.5,268.5C 273.977,267.833 277.311,267.166 280.5,266.5C 286.73,264.585 293.064,263.418 299.5,263C 305.137,265.82 310.47,269.153 315.5,273C 319.307,274.428 322.974,275.928 326.5,277.5 Z"/></g>
<g><path style="opacity:1" fill="#ab0c09" d="M 156.5,238.5 C 157.097,238.735 157.43,239.235 157.5,240C 155.497,251.074 154.997,262.241 156,273.5C 157.67,278.173 159.837,282.507 162.5,286.5C 162.665,289.518 162.498,292.518 162,295.5C 159.333,292.833 156.667,290.167 154,287.5C 150.037,270.89 150.87,254.557 156.5,238.5 Z"/></g>
<g><path style="opacity:1" fill="#790909" d="M 148.5,258.5 C 148.512,266.537 148.678,274.537 149,282.5C 147.967,279.216 146.467,276.216 144.5,273.5C 145.75,273.577 146.583,274.244 147,275.5C 147.173,269.652 147.673,263.985 148.5,258.5 Z"/></g>
<g><path style="opacity:1" fill="#210c0a" d="M 300.5,252.5 C 300.5,253.167 300.167,253.5 299.5,253.5C 293.205,248.376 287.039,243.043 281,237.5C 277.275,229.108 271.441,222.608 263.5,218C 259.249,214.565 255.249,214.732 251.5,218.5C 248.895,216.764 248.895,214.931 251.5,213C 245.419,208.179 240.086,208.679 235.5,214.5C 214.666,230.498 197.166,249.498 183,271.5C 182.341,274.888 182.508,278.221 183.5,281.5C 184.072,282.973 184.905,284.307 186,285.5C 191.928,279.576 197.094,273.076 201.5,266C 206.15,264.091 210.816,264.091 215.5,266C 221.167,266.667 226.833,266.667 232.5,266C 233.756,265.583 234.423,264.75 234.5,263.5C 235.738,262.588 237.072,262.421 238.5,263C 240.422,267.516 243.089,271.516 246.5,275C 248.473,275.495 250.473,275.662 252.5,275.5C 264.902,272.395 270.069,264.395 268,251.5C 266.833,250.333 265.667,249.167 264.5,248C 259.887,246.512 255.221,245.345 250.5,244.5C 249.058,243.18 248.392,241.514 248.5,239.5C 250.433,239.729 252.1,240.562 253.5,242C 269.385,241.71 275.385,249.21 271.5,264.5C 270.957,264.56 270.624,264.893 270.5,265.5C 273.768,266.487 277.102,266.82 280.5,266.5C 277.311,267.166 273.977,267.833 270.5,268.5C 264.981,277.425 256.981,281.259 246.5,280C 241.647,276.812 237.814,272.645 235,267.5C 224.562,268.371 214.062,268.538 203.5,268C 198.753,275.582 193.086,282.415 186.5,288.5C 185.508,288.328 184.842,288.662 184.5,289.5C 181.023,291.258 177.357,291.758 173.5,291C 177.051,290.05 180.384,288.55 183.5,286.5C 181.056,281.396 179.889,276.062 180,270.5C 191.494,253.41 204.994,237.91 220.5,224C 218.833,223.333 217.167,223.333 215.5,224C 213.983,225.685 212.316,227.185 210.5,228.5C 209.914,228.291 209.414,227.957 209,227.5C 209.149,223.984 210.983,221.484 214.5,220C 218.167,219.667 221.833,219.333 225.5,219C 227.093,218.051 228.426,216.885 229.5,215.5C 232.621,213.552 235.621,211.385 238.5,209C 231.857,207.107 225.19,207.107 218.5,209C 216.416,209.697 214.749,210.864 213.5,212.5C 212.325,212.719 211.325,212.386 210.5,211.5C 211.605,210.108 212.939,208.941 214.5,208C 222.002,205.635 229.669,204.968 237.5,206C 247.104,208.76 256.771,211.094 266.5,213C 267.212,214.425 267.379,215.925 267,217.5C 274.582,221.41 279.582,227.41 282,235.5C 286.378,239.935 291.212,243.768 296.5,247C 298.464,248.451 299.797,250.284 300.5,252.5 Z"/></g>
<g><path style="opacity:1" fill="#f28044" d="M 234.5,263.5 C 234.423,264.75 233.756,265.583 232.5,266C 226.833,266.667 221.167,266.667 215.5,266C 210.816,264.091 206.15,264.091 201.5,266C 197.094,273.076 191.928,279.576 186,285.5C 184.905,284.307 184.072,282.973 183.5,281.5C 189.342,275.821 194.675,269.654 199.5,263C 201.581,262.131 203.747,261.631 206,261.5C 215.424,263.88 224.924,264.547 234.5,263.5 Z"/></g>
<g><path style="opacity:1" fill="#f48144" d="M 250.5,244.5 C 255.221,245.345 259.887,246.512 264.5,248C 265.667,249.167 266.833,250.333 268,251.5C 270.069,264.395 264.902,272.395 252.5,275.5C 255.171,273.066 258.004,270.733 261,268.5C 264.448,263.206 264.282,258.04 260.5,253C 256.821,252.719 253.488,251.552 250.5,249.5C 249.265,247.684 249.265,246.017 250.5,244.5 Z"/></g>
<g><path style="opacity:1" fill="#1a0605" d="M 223.5,227.5 C 226.808,226.974 228.974,228.307 230,231.5C 230.667,235.833 230.667,240.167 230,244.5C 225.214,248.967 221.881,247.967 220,241.5C 219.333,238.167 219.333,234.833 220,231.5C 220.69,229.65 221.856,228.316 223.5,227.5 Z"/></g>
<g><path style="opacity:1" fill="#080504" d="M 256.5,223.5 C 260.5,224.167 262.833,226.5 263.5,230.5C 263.726,233.249 263.393,235.916 262.5,238.5C 260.305,239.769 258.139,239.769 256,238.5C 254.455,235.698 253.622,232.698 253.5,229.5C 253.078,226.692 254.078,224.692 256.5,223.5 Z"/></g>
<g><path style="opacity:1" fill="#231413" d="M 205.5,292.5 C 204.395,295.36 202.395,297.36 199.5,298.5C 199.5,297.5 199.5,296.5 199.5,295.5C 201.234,291.7 203.234,288.034 205.5,284.5C 206.72,284.887 207.387,285.72 207.5,287C 206.68,288.8 206.014,290.634 205.5,292.5 Z"/></g>
<g><path style="opacity:1" fill="#20100d" d="M 270.5,296.5 C 272.075,298.114 272.741,300.114 272.5,302.5C 265.233,304.419 257.9,306.252 250.5,308C 241.78,308.839 233.113,308.505 224.5,307C 219.218,305.54 214.885,302.707 211.5,298.5C 212,298.167 212.5,297.833 213,297.5C 216.796,299.316 220.63,300.983 224.5,302.5C 224.833,302.5 225.167,302.5 225.5,302.5C 230.077,303.99 234.91,304.656 240,304.5C 243.576,304.485 246.742,303.818 249.5,302.5C 248.398,298.253 248.232,293.92 249,289.5C 249.414,289.043 249.914,288.709 250.5,288.5C 251.492,292.783 251.826,297.116 251.5,301.5C 251.791,302.649 252.624,303.316 254,303.5C 254.833,303.333 255.667,303.167 256.5,303C 260.613,301.812 264.28,299.979 267.5,297.5C 266.334,294.17 266.334,290.837 267.5,287.5C 268.086,287.709 268.586,288.043 269,288.5C 269.567,291.168 270.067,293.834 270.5,296.5 Z"/></g>
<g><path style="opacity:1" fill="#1a0707" d="M 225.5,298.5 C 225.737,299.791 225.404,300.791 224.5,301.5C 223.599,300.71 222.932,299.71 222.5,298.5C 222.18,295.102 222.513,291.768 223.5,288.5C 224.086,288.709 224.586,289.043 225,289.5C 225.498,292.482 225.665,295.482 225.5,298.5 Z"/></g>
<g><path style="opacity:0.996" fill="#f8a87d" d="M 184.5,289.5 C 184.842,288.662 185.508,288.328 186.5,288.5C 192.82,287.489 197.154,289.822 199.5,295.5C 199.5,296.5 199.5,297.5 199.5,298.5C 199.735,299.097 200.235,299.43 201,299.5C 205.767,297.862 210.267,295.862 214.5,293.5C 217.167,295.167 219.833,296.833 222.5,298.5C 222.932,299.71 223.599,300.71 224.5,301.5C 224.5,301.833 224.5,302.167 224.5,302.5C 220.63,300.983 216.796,299.316 213,297.5C 212.5,297.833 212,298.167 211.5,298.5C 214.885,302.707 219.218,305.54 224.5,307C 233.113,308.505 241.78,308.839 250.5,308C 257.9,306.252 265.233,304.419 272.5,302.5C 272.741,300.114 272.075,298.114 270.5,296.5C 273.838,294.334 277.505,293.001 281.5,292.5C 279.877,305.452 273.543,315.119 262.5,321.5C 243.446,327.102 225.779,324.269 209.5,313C 207.423,312.808 205.423,312.308 203.5,311.5C 199.837,305.786 195.504,300.786 190.5,296.5C 189.908,292.911 187.908,290.578 184.5,289.5 Z"/></g>
<g><path style="opacity:0.997" fill="#e87d45" d="M 297.5,289.5 C 297.088,293.337 295.754,294.004 293.5,291.5C 294.514,290.326 295.847,289.66 297.5,289.5 Z"/></g>
<g><path style="opacity:1" fill="#ab0d0a" d="M 166.5,289.5 C 175.024,301.112 186.358,308.778 200.5,312.5C 201.478,312.811 202.145,313.478 202.5,314.5C 188.045,315.689 176.212,310.689 167,299.5C 166.502,296.183 166.335,292.85 166.5,289.5 Z"/></g>
<g><path style="opacity:0.999" fill="#f78346" d="M 287.5,291.5 C 289.768,293.465 292.435,294.632 295.5,295C 287.519,307.649 276.519,316.483 262.5,321.5C 273.543,315.119 279.877,305.452 281.5,292.5C 283.265,291.539 285.265,291.205 287.5,291.5 Z"/></g>
<g><path style="opacity:1" fill="#f9884d" d="M 205.5,292.5 C 208.57,292.368 211.57,292.701 214.5,293.5C 210.267,295.862 205.767,297.862 201,299.5C 200.235,299.43 199.735,299.097 199.5,298.5C 202.395,297.36 204.395,295.36 205.5,292.5 Z"/></g>
<g><path style="opacity:1" fill="#fb874a" d="M 240.5,297.5 C 235.304,298.387 230.304,300.054 225.5,302.5C 225.167,302.5 224.833,302.5 224.5,302.5C 224.5,302.167 224.5,301.833 224.5,301.5C 225.404,300.791 225.737,299.791 225.5,298.5C 227.998,297.373 230.664,296.706 233.5,296.5C 235.858,296.753 238.192,297.086 240.5,297.5 Z"/></g>
<g><path style="opacity:0.996" fill="#f8a97f" d="M 240.5,297.5 C 243.366,299.432 246.366,301.099 249.5,302.5C 246.742,303.818 243.576,304.485 240,304.5C 234.91,304.656 230.077,303.99 225.5,302.5C 230.304,300.054 235.304,298.387 240.5,297.5 Z"/></g>
<g><path style="opacity:0.996" fill="#f39f72" d="M 267.5,297.5 C 264.28,299.979 260.613,301.812 256.5,303C 255.667,303.167 254.833,303.333 254,303.5C 252.624,303.316 251.791,302.649 251.5,301.5C 256.231,297.473 261.565,296.14 267.5,297.5 Z"/></g>
<g><path style="opacity:0.004" fill="#fb0100" d="M 188.5,318.5 C 193.157,317.994 197.49,318.827 201.5,321C 200.944,321.383 200.611,321.883 200.5,322.5C 181.402,342.393 159.402,358.393 134.5,370.5C 130.572,366.984 127.905,362.65 126.5,357.5C 128.503,355.018 131.169,354.018 134.5,354.5C 135.167,354.5 135.5,354.167 135.5,353.5C 138.221,353.037 140.888,352.371 143.5,351.5C 150.71,349.559 157.376,346.559 163.5,342.5C 166.552,341.029 169.552,339.362 172.5,337.5C 174.255,336.928 175.922,336.094 177.5,335C 181.334,332.332 184.667,329.165 187.5,325.5C 187.398,323.244 187.732,320.911 188.5,318.5 Z"/></g>
<g><path style="opacity:0.004" fill="#fe0000" d="M 212.5,324.5 C 205.509,336.331 196.509,346.498 185.5,355C 170.632,367.264 154.632,377.764 137.5,386.5C 135.287,387.773 132.954,388.773 130.5,389.5C 129.127,389.657 127.793,389.49 126.5,389C 123.449,385.701 120.782,382.201 118.5,378.5C 118.5,377.833 118.5,377.167 118.5,376.5C 124.171,376.888 129.504,375.721 134.5,373C 160.77,360.554 183.77,343.72 203.5,322.5C 206.723,321.581 209.723,322.247 212.5,324.5 Z"/></g>
<g><path style="opacity:0.008" fill="#7b0200" d="M 200.5,322.5 C 201.5,322.5 202.5,322.5 203.5,322.5C 183.77,343.72 160.77,360.554 134.5,373C 129.504,375.721 124.171,376.888 118.5,376.5C 119.167,375.833 119.833,375.167 120.5,374.5C 123.877,374.041 127.211,373.374 130.5,372.5C 128.883,368.526 127.217,364.526 125.5,360.5C 125.263,359.209 125.596,358.209 126.5,357.5C 127.905,362.65 130.572,366.984 134.5,370.5C 159.402,358.393 181.402,342.393 200.5,322.5 Z"/></g>
<g><path style="opacity:0.004" fill="#000000" d="M 185.5,325.5 C 184.738,327.262 183.404,328.262 181.5,328.5C 182.262,326.738 183.596,325.738 185.5,325.5 Z"/></g>
<g><path style="opacity:0.008" fill="#710600" d="M 185.5,325.5 C 186.167,325.5 186.833,325.5 187.5,325.5C 184.667,329.165 181.334,332.332 177.5,335C 175.922,336.094 174.255,336.928 172.5,337.5C 172.5,336.833 172.167,336.5 171.5,336.5C 172.436,335.026 173.77,334.026 175.5,333.5C 177.027,333.573 178.027,332.906 178.5,331.5C 179.167,330.167 180.167,329.167 181.5,328.5C 183.404,328.262 184.738,327.262 185.5,325.5 Z"/></g>
<g><path style="opacity:0.008" fill="#7e0000" d="M 212.5,324.5 C 213.167,324.833 213.833,325.167 214.5,325.5C 208.574,335.943 200.907,345.11 191.5,353C 175.929,365.898 159.262,377.231 141.5,387C 142.823,387.816 143.489,388.983 143.5,390.5C 142.167,389.5 140.833,388.5 139.5,387.5C 139.158,386.662 138.492,386.328 137.5,386.5C 154.632,377.764 170.632,367.264 185.5,355C 196.509,346.498 205.509,336.331 212.5,324.5 Z"/></g>
<g><path style="opacity:0.004" fill="#fa0000" d="M 214.5,325.5 C 216.781,325.077 218.448,325.744 219.5,327.5C 219.5,327.833 219.5,328.167 219.5,328.5C 219.5,329.167 219.5,329.833 219.5,330.5C 218.833,330.5 218.5,330.833 218.5,331.5C 215.659,335.849 213.326,340.516 211.5,345.5C 209.088,348.438 207.255,351.771 206,355.5C 204.281,358.288 202.115,360.621 199.5,362.5C 197.167,364.167 195.167,366.167 193.5,368.5C 190.167,371.833 186.833,375.167 183.5,378.5C 174.522,386.329 164.522,392.663 153.5,397.5C 153.167,397.5 152.833,397.5 152.5,397.5C 148.91,395.908 145.91,393.575 143.5,390.5C 143.489,388.983 142.823,387.816 141.5,387C 159.262,377.231 175.929,365.898 191.5,353C 200.907,345.11 208.574,335.943 214.5,325.5 Z"/></g>
<g><path style="opacity:0.004" fill="#000000" d="M 221.5,327.5 C 222.833,328.167 222.833,328.167 221.5,327.5 Z"/></g>
<g><path style="opacity:0.01" fill="#000000" d="M 219.5,328.5 C 220.167,328.5 220.833,328.5 221.5,328.5C 220.912,331.063 219.912,333.396 218.5,335.5C 218.5,334.167 218.5,332.833 218.5,331.5C 219.167,331.5 219.5,331.167 219.5,330.5C 219.5,329.833 219.5,329.167 219.5,328.5 Z"/></g>
<g><path style="opacity:0.004" fill="#000000" d="M 178.5,331.5 C 178.027,332.906 177.027,333.573 175.5,333.5C 175.973,332.094 176.973,331.427 178.5,331.5 Z"/></g>
<g><path style="opacity:0.008" fill="#6b0800" d="M 218.5,331.5 C 218.5,332.833 218.5,334.167 218.5,335.5C 217.083,338.669 215.417,341.669 213.5,344.5C 212.833,344.833 212.167,345.167 211.5,345.5C 213.326,340.516 215.659,335.849 218.5,331.5 Z"/></g>
<g><path style="opacity:0.004" fill="#000000" d="M 171.5,336.5 C 172.167,336.5 172.5,336.833 172.5,337.5C 169.552,339.362 166.552,341.029 163.5,342.5C 162.5,342.5 161.5,342.5 160.5,342.5C 163.999,340.25 167.665,338.25 171.5,336.5 Z"/></g>
<g><path style="opacity:0.008" fill="#6c0800" d="M 160.5,342.5 C 161.5,342.5 162.5,342.5 163.5,342.5C 157.376,346.559 150.71,349.559 143.5,351.5C 144.306,350.272 145.306,349.272 146.5,348.5C 150.866,345.988 155.533,343.988 160.5,342.5 Z"/></g>
<g><path style="opacity:0.004" fill="#000000" d="M 213.5,344.5 C 210.308,352.225 205.641,358.891 199.5,364.5C 199.5,363.833 199.5,363.167 199.5,362.5C 202.115,360.621 204.281,358.288 206,355.5C 207.255,351.771 209.088,348.438 211.5,345.5C 212.167,345.167 212.833,344.833 213.5,344.5 Z"/></g>
<g><path style="opacity:0.004" fill="#000000" d="M 146.5,348.5 C 145.306,349.272 144.306,350.272 143.5,351.5C 140.888,352.371 138.221,353.037 135.5,353.5C 134.833,353.5 134.5,353.833 134.5,354.5C 131.169,354.018 128.503,355.018 126.5,357.5C 125.596,358.209 125.263,359.209 125.5,360.5C 124.207,358.636 124.207,356.636 125.5,354.5C 132.396,352.09 139.396,350.09 146.5,348.5 Z"/></g>
<g><path style="opacity:0.008" fill="#650a01" d="M 199.5,362.5 C 199.5,363.167 199.5,363.833 199.5,364.5C 198.833,365.833 197.833,366.833 196.5,367.5C 195.609,368.11 194.609,368.443 193.5,368.5C 195.167,366.167 197.167,364.167 199.5,362.5 Z"/></g>
<g><path style="opacity:0.004" fill="#000000" d="M 196.5,367.5 C 195.92,369.749 194.587,371.415 192.5,372.5C 192.833,371.167 193.167,369.833 193.5,368.5C 194.609,368.443 195.609,368.11 196.5,367.5 Z"/></g>
<g><path style="opacity:0.008" fill="#6c0800" d="M 193.5,368.5 C 193.167,369.833 192.833,371.167 192.5,372.5C 191.5,374.167 190.167,375.5 188.5,376.5C 186.833,377.167 185.167,377.833 183.5,378.5C 186.833,375.167 190.167,371.833 193.5,368.5 Z"/></g>
<g><path style="opacity:0.004" fill="#000000" d="M 120.5,374.5 C 119.833,375.167 119.167,375.833 118.5,376.5C 118.5,377.167 118.5,377.833 118.5,378.5C 118.5,379.5 118.5,380.5 118.5,381.5C 116.039,379.256 115.373,376.589 116.5,373.5C 117.736,374.246 119.07,374.579 120.5,374.5 Z"/></g>
<g><path style="opacity:0.004" fill="#000000" d="M 188.5,376.5 C 177.901,386.402 165.901,394.402 152.5,400.5C 147.124,397.124 142.791,392.791 139.5,387.5C 140.833,388.5 142.167,389.5 143.5,390.5C 145.91,393.575 148.91,395.908 152.5,397.5C 152.833,398.833 153.167,398.833 153.5,397.5C 164.522,392.663 174.522,386.329 183.5,378.5C 185.167,377.833 186.833,377.167 188.5,376.5 Z"/></g>
<g><path style="opacity:0.008" fill="#730500" d="M 118.5,378.5 C 120.782,382.201 123.449,385.701 126.5,389C 127.793,389.49 129.127,389.657 130.5,389.5C 129.903,390.139 129.07,390.472 128,390.5C 126.061,390.046 124.228,389.379 122.5,388.5C 120.412,386.664 119.079,384.331 118.5,381.5C 118.5,380.5 118.5,379.5 118.5,378.5 Z"/></g>
<g><path style="opacity:0.004" fill="#000000" d="M 137.5,386.5 C 138.492,386.328 139.158,386.662 139.5,387.5C 135.415,389.29 131.249,390.956 127,392.5C 125.02,391.685 123.52,390.352 122.5,388.5C 124.228,389.379 126.061,390.046 128,390.5C 129.07,390.472 129.903,390.139 130.5,389.5C 132.954,388.773 135.287,387.773 137.5,386.5 Z"/></g>
</svg>
